<svg viewBox="0 0 15 15" xmlns="http://www.w3.org/2000/svg" xmlns:xlink="http://www.w3.org/1999/xlink" width="15.000000" height="15.000000" fill="none" customFrame="#000000">
	<path id="Vector" d="M5.25 9L5.25 11.25L9.75 11.25L9.75 9L15 9L15 14.25C15 14.4489 14.921 14.6397 14.7803 14.7803C14.6397 14.921 14.4489 15 14.25 15L0.75 15C0.551088 15 0.360322 14.921 0.21967 14.7803C0.0790176 14.6397 4.996e-16 14.4489 0 14.25L0 9L5.25 9ZM6.75 7.5L8.25 7.5L8.25 9.75L6.75 9.75L6.75 7.5ZM3.75 3L3.75 0.75C3.75 0.551088 3.82902 0.360322 3.96967 0.21967C4.11032 0.0790176 4.30109 1.66533e-16 4.5 0L10.5 0C10.6989 1.66533e-16 10.8897 0.0790176 11.0303 0.21967C11.171 0.360322 11.25 0.551088 11.25 0.75L11.25 3L14.25 3C14.4489 3 14.6397 3.07902 14.7803 3.21967C14.921 3.36032 15 3.55109 15 3.75L15 7.5L9.75 7.5L9.75 6L5.25 6L5.25 7.5L0 7.5L0 3.75C0 3.55109 0.0790176 3.36032 0.21967 3.21967C0.360322 3.07902 0.551088 3 0.75 3L3.75 3ZM5.25 1.5L5.25 3L9.75 3L9.75 1.5L5.25 1.5Z" fill="rgb(118,118,118)" fill-rule="nonzero" />
</svg>
