<svg viewBox="0 0 65 33" xmlns="http://www.w3.org/2000/svg" xmlns:xlink="http://www.w3.org/1999/xlink" width="65.000000" height="33.000000" fill="none" customFrame="#000000">
	<g id="Pop up">
		<path id="Union" d="M65 2C65 0.89543 64.1046 0 63 0L2 0C0.89543 0 0 0.89543 0 2L0 22C0 23.1046 0.89543 24 2 24L26.8039 24L32 33L37.1962 24L63 24C64.1046 24 65 23.1046 65 22L65 2Z" fill="rgb(43,43,43)" fill-rule="evenodd" />
		<path id="Home" d="M15.9588 17.8636L17.2756 17.8636L17.2756 14.0582L21.6264 14.0582L21.6264 17.8636L22.9474 17.8636L22.9474 9.13636L21.6264 9.13636L21.6264 12.929L17.2756 12.929L17.2756 9.13636L15.9588 9.13636L15.9588 17.8636ZM27.5199 17.9957C29.3651 17.9957 30.571 16.6449 30.571 14.6207C30.571 12.5838 29.3651 11.233 27.5199 11.233C25.6747 11.233 24.4688 12.5838 24.4688 14.6207C24.4688 16.6449 25.6747 17.9957 27.5199 17.9957ZM27.5241 16.9261C26.3182 16.9261 25.7557 15.8736 25.7557 14.6165C25.7557 13.3636 26.3182 12.2983 27.5241 12.2983C28.7216 12.2983 29.2841 13.3636 29.2841 14.6165C29.2841 15.8736 28.7216 16.9261 27.5241 16.9261ZM31.9933 17.8636L33.2674 17.8636L33.2674 13.8281C33.2674 12.946 33.8853 12.3324 34.6097 12.3324C35.3171 12.3324 35.8072 12.8011 35.8072 13.5128L35.8072 17.8636L37.0771 17.8636L37.0771 13.6918C37.0771 12.9034 37.5586 12.3324 38.3896 12.3324C39.0629 12.3324 39.6168 12.7074 39.6168 13.5938L39.6168 17.8636L40.891 17.8636L40.891 13.4744C40.891 11.9787 40.0558 11.233 38.8711 11.233C37.9293 11.233 37.2219 11.6847 36.9066 12.3835L36.8384 12.3835C36.5529 11.6676 35.9521 11.233 35.0785 11.233C34.2134 11.233 33.57 11.6634 33.2972 12.3835L33.2163 12.3835L33.2163 11.3182L31.9933 11.3182L31.9933 17.8636ZM45.4197 17.9957C46.8473 17.9957 47.8572 17.2926 48.147 16.2273L46.9411 16.0099C46.7109 16.6278 46.157 16.9432 45.4325 16.9432C44.3416 16.9432 43.6087 16.2358 43.5746 14.9744L48.228 14.9744L48.228 14.5227C48.228 12.1577 46.8132 11.233 45.3303 11.233C43.5064 11.233 42.3047 12.6222 42.3047 14.6335C42.3047 16.6662 43.4893 17.9957 45.4197 17.9957ZM43.5788 14.0199C43.63 13.0909 44.3033 12.2855 45.3388 12.2855C46.3274 12.2855 46.9751 13.0185 46.9794 14.0199L43.5788 14.0199Z" fill="rgb(255,255,255)" fill-rule="nonzero" />
	</g>
</svg>
